<svg version="1.1" viewBox="0.0 0.0 300.0 300.0" fill="none" stroke="none" stroke-linecap="square" stroke-miterlimit="10" xmlns:xlink="http://www.w3.org/1999/xlink" xmlns="http://www.w3.org/2000/svg"><clipPath id="p.0"><path d="m0 0l300.0 0l0 300.0l-300.0 0l0 -300.0z" clip-rule="nonzero"/></clipPath><g clip-path="url(#p.0)"><path fill="#000000" fill-opacity="0.0" d="m0 0l300.0 0l0 300.0l-300.0 0z" fill-rule="evenodd"/><path fill="#20124d" d="m6.4356956 4.7874017l239.36911 0l47.87497 47.874973l0 242.5502l0 0l-239.36911 0l-47.874973 -47.874954l0 -242.55023z" fill-rule="evenodd"/><path stroke="#ff9900" stroke-width="1.0" stroke-linejoin="round" stroke-linecap="butt" d="m6.4356956 4.7874017l239.36911 0l47.87497 47.874973l0 242.5502l0 0l-239.36911 0l-47.874973 -47.874954l0 -242.55023z" fill-rule="evenodd"/><path fill="#6d9eeb" d="m61.26095 10.274281c-8.01506 0 -15.375427 2.0846672 -22.081108 6.2539997c-6.7056694 4.127222 -12.022596 9.749506 -15.950773 16.86685c-3.8884907 7.117344 -5.8327446 14.95063 -5.8327446 23.499878l0 186.29341c0 8.507111 1.9442539 16.319336 5.8327446 23.436707c3.9281769 7.11734 9.245104 12.760681 15.950773 16.930023c6.705673 4.127228 14.06604 6.1908264 22.081108 6.1908264l218.66843 0l0 -31.459534l-218.66843 0c-3.8884964 0 -7.241337 -1.473999 -10.05851 -4.4220123c-2.7774963 -2.9901276 -4.1662445 -6.548813 -4.1662445 -10.67601l0 -186.29341c0 -4.1693306 1.3887482 -7.7280006 4.1662445 -10.676018c2.8171806 -2.9901314 6.1700172 -4.4851913 10.05851 -4.4851913l218.66843 0l0 -31.459518z" fill-rule="evenodd"/><path fill="#0a7e33" d="m64.8566 149.99963l0 0c0 -45.895897 37.52684 -83.10187 83.81854 -83.10187l0 0c22.230057 0 43.549637 8.755348 59.26866 24.339973c15.719025 15.584625 24.549881 36.72191 24.549881 58.761894l0 0c0 45.89589 -37.52684 83.10187 -83.81854 83.10187l0 0c-46.291702 0 -83.81854 -37.20598 -83.81854 -83.10187z" fill-rule="evenodd"/><path fill="#d0e0e3" d="m78.08739 130.12854l23.41661 -25.021835l23.416618 25.021835z" fill-rule="evenodd"/><path stroke="#ffffff" stroke-width="1.0" stroke-linejoin="round" stroke-linecap="butt" d="m78.08739 130.12854l23.41661 -25.021835l23.416618 25.021835z" fill-rule="evenodd"/><path fill="#fff2cc" d="m171.75383 130.12854l23.41661 -25.021835l23.41661 25.021835z" fill-rule="evenodd"/><path stroke="#ffffff" stroke-width="1.0" stroke-linejoin="round" stroke-linecap="butt" d="m171.75383 130.12854l23.41661 -25.021835l23.41661 25.021835z" fill-rule="evenodd"/><path fill="#fce5cd" d="m219.27032 130.13039l-70.595184 89.93613l-70.59518 -89.93613z" fill-rule="evenodd"/><path stroke="#ffffff" stroke-width="1.0" stroke-linejoin="round" stroke-linecap="butt" d="m219.27032 130.13039l-70.595184 89.93613l-70.59518 -89.93613z" fill-rule="evenodd"/><path fill="#d9ead3" d="m124.920616 130.1174l23.416603 -25.010696l23.41661 25.010696l-23.41661 25.010712z" fill-rule="evenodd"/><path stroke="#ffffff" stroke-width="1.0" stroke-linejoin="round" stroke-linecap="butt" d="m124.920616 130.1174l23.416603 -25.010696l23.41661 25.010696l-23.41661 25.010712z" fill-rule="evenodd"/><path fill="#000000" fill-opacity="0.0" d="m101.504 105.106705l93.66644 0" fill-rule="evenodd"/><path stroke="#ffffff" stroke-width="1.0" stroke-linejoin="round" stroke-linecap="butt" d="m101.504 105.106705l93.66644 0" fill-rule="evenodd"/><path fill="#000000" fill-opacity="0.0" d="m148.33722 155.12811l0.33421326 64.936554" fill-rule="evenodd"/><path stroke="#ffffff" stroke-width="1.0" stroke-linejoin="round" stroke-linecap="butt" d="m148.33722 155.12811l0.33421326 64.936554" fill-rule="evenodd"/><path fill="#f4cccc" d="m172.84 129.78572l4.5674744 53.983948l-29.320908 -29.296036z" fill-rule="evenodd"/><path stroke="#ffffff" stroke-width="1.0" stroke-linejoin="round" stroke-linecap="butt" d="m172.84 129.78572l4.5674744 53.983948l-29.320908 -29.296036z" fill-rule="evenodd"/><path fill="#d9d2e9" d="m124.22435 130.10231l-4.8793945 53.67227l29.320892 -29.29602z" fill-rule="evenodd"/><path stroke="#ffffff" stroke-width="1.0" stroke-linejoin="round" stroke-linecap="butt" d="m124.22435 130.10231l-4.8793945 53.67227l29.320892 -29.29602z" fill-rule="evenodd"/><path fill="#cfe2f3" d="m147.89162 208.7707l-28.362839 -26.825012l28.362839 -26.825012z" fill-rule="evenodd"/><path stroke="#ffffff" stroke-width="1.0" stroke-linejoin="round" stroke-linecap="butt" d="m147.89162 208.7707l-28.362839 -26.825012l28.362839 -26.825012z" fill-rule="evenodd"/><path fill="#76a5af" d="m148.66586 208.7707l28.362839 -26.825012l-28.362839 -26.825012z" fill-rule="evenodd"/><path stroke="#ffffff" stroke-width="1.0" stroke-linejoin="round" stroke-linecap="butt" d="m148.66586 208.7707l28.362839 -26.825012l-28.362839 -26.825012z" fill-rule="evenodd"/></g></svg>